<?xml version="1.0" encoding="UTF-8"?><svg id="a" xmlns="http://www.w3.org/2000/svg" width="2.42in" height="3.23in" xmlns:xlink="http://www.w3.org/1999/xlink" viewBox="0 0 174.36 232.48"><defs><clipPath id="b"><path d="M29.06,0C13.01,0,0,13.01,0,29.06v174.36c0,16.05,13.01,29.06,29.06,29.06h116.24c16.05,0,29.06-13.01,29.06-29.06V18c0-9.94-8.06-18-18-18H29.06ZM43.59,29.06h87.18c8.04,0,14.53,6.49,14.53,14.53v14.53c0,8.04-6.49,14.53-14.53,14.53H43.59c-8.04,0-14.53-6.49-14.53-14.53v-14.53c0-8.04,6.49-14.53,14.53-14.53ZM58.12,101.71c0,8.02-6.51,14.53-14.53,14.53s-14.53-6.51-14.53-14.53,6.51-14.53,14.53-14.53,14.53,6.51,14.53,14.53ZM43.59,159.83c-8.02,0-14.53-6.51-14.53-14.53s6.51-14.53,14.53-14.53,14.53,6.51,14.53,14.53-6.51,14.53-14.53,14.53ZM29.06,188.89c0-8.04,6.49-14.53,14.53-14.53h43.59c8.04,0,14.53,6.49,14.53,14.53s-6.49,14.53-14.53,14.53h-43.59c-8.04,0-14.53-6.49-14.53-14.53ZM87.18,116.24c-8.02,0-14.53-6.51-14.53-14.53s6.51-14.53,14.53-14.53,14.53,6.51,14.53,14.53-6.51,14.53-14.53,14.53ZM101.71,145.3c0,8.02-6.51,14.53-14.53,14.53s-14.53-6.51-14.53-14.53,6.51-14.53,14.53-14.53,14.53,6.51,14.53,14.53ZM130.77,116.24c-8.02,0-14.53-6.51-14.53-14.53s6.51-14.53,14.53-14.53,14.53,6.51,14.53,14.53-6.51,14.53-14.53,14.53ZM145.3,145.3c0,8.02-6.51,14.53-14.53,14.53s-14.53-6.51-14.53-14.53,6.51-14.53,14.53-14.53,14.53,6.51,14.53,14.53ZM130.77,203.42c-8.02,0-14.53-6.51-14.53-14.53s6.51-14.53,14.53-14.53,14.53,6.51,14.53,14.53-6.51,14.53-14.53,14.53Z" fill="none"/></clipPath></defs><path d="M18,0C8.06,0,0,8.06,0,18v196.48c0,9.94,8.06,18,18,18h138.36c9.94,0,18-8.06,18-18V18c0-9.94-8.06-18-18-18H18ZM38.06,29.06h98.24c4.97,0,9,4.03,9,9v25.59c0,4.97-4.03,9-9,9H38.06c-4.97,0-9-4.03-9-9v-25.59c0-4.97,4.03-9,9-9ZM58.12,101.71c0,8.02-6.51,14.53-14.53,14.53s-14.53-6.51-14.53-14.53,6.51-14.53,14.53-14.53,14.53,6.51,14.53,14.53ZM43.59,159.83c-8.02,0-14.53-6.51-14.53-14.53s6.51-14.53,14.53-14.53,14.53,6.51,14.53,14.53-6.51,14.53-14.53,14.53ZM29.06,188.89c0-8.04,6.49-14.53,14.53-14.53h43.59c8.04,0,14.53,6.49,14.53,14.53s-6.49,14.53-14.53,14.53h-43.59c-8.04,0-14.53-6.49-14.53-14.53ZM87.18,116.24c-8.02,0-14.53-6.51-14.53-14.53s6.51-14.53,14.53-14.53,14.53,6.51,14.53,14.53-6.51,14.53-14.53,14.53ZM101.71,145.3c0,8.02-6.51,14.53-14.53,14.53s-14.53-6.51-14.53-14.53,6.51-14.53,14.53-14.53,14.53,6.51,14.53,14.53ZM130.77,116.24c-8.02,0-14.53-6.51-14.53-14.53s6.51-14.53,14.53-14.53,14.53,6.51,14.53,14.53-6.51,14.53-14.53,14.53ZM145.3,145.3c0,8.02-6.51,14.53-14.53,14.53s-14.53-6.51-14.53-14.53,6.51-14.53,14.53-14.53,14.53,6.51,14.53,14.53ZM130.77,203.42c-8.02,0-14.53-6.51-14.53-14.53s6.51-14.53,14.53-14.53,14.53,6.51,14.53,14.53-6.51,14.53-14.53,14.53Z" fill="#f2f2f2"/><g clip-path="url(#b)"><path d="M189.3-44.86l.83,7.16s-2.31,4.17-2.31,6.15,2.31,2.31,2.31,2.31v9.17c.99.43,1.58,1.29,2.01,2.31v3.79s2.54,1.18,2.54,1.18v1.72s1.72,1.01,1.72,1.01v4.79s8.53,2.53,8.53,2.53c.73.22,1.23.89,1.23,1.65v20.43c-2.78,2.56-4.53,5.53-5.03,9l1.17,1.23c.15.16.24.37.24.59v80.04s11.59,0,11.59,0c.79,0,1.43.64,1.43,1.43v5.19c1.43,0,2.02,1.19,2.12,2.85.02.31.27.55.57.55h.89c.32,0,.57.26.57.57v3.43c0,.32.26.57.57.57h1.88c.32,0,.57.26.57.57v3.69c1.52,6.76,1.39,14.09,0,21.77v3.44c0,.32-.26.57-.57.57h-1.77c-.32,0-.57.26-.57.57v3.83c0,.32-.26.57-.57.57h-3.26c-36.32-.51-82.83.25-88.86-4.04l-50.24-7.58c-.28-.04-.49-.28-.49-.57v-5.92s-9.08-.15-9.08-.15c-.31,0-.56-.26-.56-.57v-3.29c0-.42.3-.78.71-.85l20.21-3.48,1.39-147.02-2.4-4.3,2.4-5.82c.15-4.64,1.57-7.86,6.2-7.53l5.67,1.87,11.48.13c1.77,1.54,3.18,3.05,2.13,4.39l1.61.13s1.99-5.46,5.57-5.32c3.58.14,4.49,5.89,8.75,9.14,3.33,2.54,6.16,4.29,11.75,5.83s12.51-1.98,16.12.51c3.61,2.49,2.05,12.73,2.05,12.73l2.37,1.51c2.11-2.85,6.38-3.93,11.22-4.53-1.16-4.15.67-5.04.67-5.04,0,0-14.47-2-14.38-10.65.11-11.54,17.69-12.59,17.69-12.59l-.59-10.2c4.8-3.44,8.66-3.58,11.9-1.48ZM120.85,11.32v126.17s3.04,0,3.04,0v-11.31s16.23,0,16.23,0v-8.7c0-2.53,2.05-4.58,4.58-4.58h0c.94,0,1.73-.71,1.83-1.65,1.55-13.94-.89-20.99-7.81-23,13.78.73,22.31,1.56,22.24,10.45l4.67-.38.29-8.97c0-.28.23-.52.51-.55l9.37-1.05,1.81-1.81-1.21-54.07,1.21-.7c-.31-3.98-1.87-6.72-3.73-9.16-17.62-7.75-35.28-12.36-53.04-10.67ZM163.73-21.72c.22,10.3,23.25,10.59,23.25,10.59-1.05-2.71-1.32-5.03.67-6.19v-11.32s-24.14-3.38-23.92,6.93Z" fill="#390"/></g></svg>