<?xml version="1.0" encoding="UTF-8"?><svg id="a" xmlns="http://www.w3.org/2000/svg" width="3.11in" height="4.06in" xmlns:xlink="http://www.w3.org/1999/xlink" viewBox="0 0 223.84 292.11"><defs><clipPath id="b"><path d="M29.06,46.24C13.01,46.24,0,59.25,0,75.3v174.36c0,16.05,13.01,29.06,29.06,29.06h116.24c16.05,0,29.06-13.01,29.06-29.06V64.24c0-9.94-8.06-18-18-18H29.06ZM43.59,75.3h87.18c8.04,0,14.53,6.49,14.53,14.53v14.53c0,8.04-6.49,14.53-14.53,14.53H43.59c-8.04,0-14.53-6.49-14.53-14.53v-14.53c0-8.04,6.49-14.53,14.53-14.53ZM58.12,147.95c0,8.02-6.51,14.53-14.53,14.53s-14.53-6.51-14.53-14.53,6.51-14.53,14.53-14.53,14.53,6.51,14.53,14.53ZM43.59,206.07c-8.02,0-14.53-6.51-14.53-14.53s6.51-14.53,14.53-14.53,14.53,6.51,14.53,14.53-6.51,14.53-14.53,14.53ZM29.06,235.13c0-8.04,6.49-14.53,14.53-14.53h43.59c8.04,0,14.53,6.49,14.53,14.53s-6.49,14.53-14.53,14.53h-43.59c-8.04,0-14.53-6.49-14.53-14.53ZM87.18,162.48c-8.02,0-14.53-6.51-14.53-14.53s6.51-14.53,14.53-14.53,14.53,6.51,14.53,14.53-6.51,14.53-14.53,14.53ZM101.71,191.54c0,8.02-6.51,14.53-14.53,14.53s-14.53-6.51-14.53-14.53,6.51-14.53,14.53-14.53,14.53,6.51,14.53,14.53ZM130.77,162.48c-8.02,0-14.53-6.51-14.53-14.53s6.51-14.53,14.53-14.53,14.53,6.51,14.53,14.53-6.51,14.53-14.53,14.53ZM145.3,191.54c0,8.02-6.51,14.53-14.53,14.53s-14.53-6.51-14.53-14.53,6.51-14.53,14.53-14.53,14.53,6.51,14.53,14.53ZM130.77,249.66c-8.02,0-14.53-6.51-14.53-14.53s6.51-14.53,14.53-14.53,14.53,6.51,14.53,14.53-6.51,14.53-14.53,14.53Z" fill="none"/></clipPath></defs><path d="M18,46.24c-9.94,0-18,8.06-18,18v196.48c0,9.94,8.06,18,18,18h138.36c9.94,0,18-8.06,18-18V64.24c0-9.94-8.06-18-18-18H18ZM38.06,75.3h98.24c4.97,0,9,4.03,9,9v25.59c0,4.97-4.03,9-9,9H38.06c-4.97,0-9-4.03-9-9v-25.59c0-4.97,4.03-9,9-9ZM58.12,147.95c0,8.02-6.51,14.53-14.53,14.53s-14.53-6.51-14.53-14.53,6.51-14.53,14.53-14.53,14.53,6.51,14.53,14.53ZM43.59,206.07c-8.02,0-14.53-6.51-14.53-14.53s6.51-14.53,14.53-14.53,14.53,6.51,14.53,14.53-6.51,14.53-14.53,14.53ZM29.06,235.13c0-8.04,6.49-14.53,14.53-14.53h43.59c8.04,0,14.53,6.49,14.53,14.53s-6.49,14.53-14.53,14.53h-43.59c-8.04,0-14.53-6.49-14.53-14.53ZM87.18,162.48c-8.02,0-14.53-6.51-14.53-14.53s6.51-14.53,14.53-14.53,14.53,6.51,14.53,14.53-6.51,14.53-14.53,14.53ZM101.71,191.54c0,8.02-6.51,14.53-14.53,14.53s-14.53-6.51-14.53-14.53,6.51-14.53,14.53-14.53,14.53,6.51,14.53,14.53ZM130.77,162.48c-8.02,0-14.53-6.51-14.53-14.53s6.51-14.53,14.53-14.53,14.53,6.51,14.53,14.53-6.51,14.53-14.53,14.53ZM145.3,191.54c0,8.02-6.51,14.53-14.53,14.53s-14.53-6.51-14.53-14.53,6.51-14.53,14.53-14.53,14.53,6.51,14.53,14.53ZM130.77,249.66c-8.02,0-14.53-6.51-14.53-14.53s6.51-14.53,14.53-14.53,14.53,6.51,14.53,14.53-6.51,14.53-14.53,14.53Z" fill="#f2f2f2"/><g clip-path="url(#b)"><path d="M127.18,292.1c-3.75.28-6.45-8.21-8.92-10.78-2.41-3.69-3.83-8.38-8.76-9.06-2.58-.91-.89-3.35-.67-5.16.06-.86-.26-1.68-.56-2.5-1.17-2.8-1.59-5.99-3.3-8.39-3.65-2.98-7.17-1.61-2.4-6.99.39-.59.11-1.15-.18-1.71-1.23-3.1-1.92-6.58-3.75-9.5-1.04-1.86-4.34-1.11-5.33-2.91-.3-1.41,1.25-2.66,1.92-3.8,1.49-3.33-1.21-7.5-2.38-10.72-1.27-3.93-9.29-1.63-4.4-7.29,2.26-2.82-.54-6.72-1.32-9.78-.61-2.15-1.61-3.85-4.14-4.02-4.47-.92-1.23-3.56.24-5.46.49-1.19-.39-2.43-.66-3.59-.9-2.74-1.26-6.89-3.83-8.45-1.46-.79-4.67-.35-4.63-2.62.21-1.63,2.1-2.38,2.6-3.8.46-1.39-.35-2.85-.67-4.21-.5-1.89-.96-4.21-1.72-5.88-.88-2.89-5.14-1.52-6.24-3.98-.62-2.25,2.24-4.09,2.39-6.09-.61-2.94-1.61-6.64-2.88-9.11-.89-1.26-2.61-1.16-3.8-2.05-3.42-2.51.6-4.99.38-7.47-6.56-19.51-15.14-49.73-33.7-63.5-2.2-1.84-6.34-1.08-8-3.13-2.06-3.25,1.19-6.39,4.13-7.5,7.8-3.94,24.9-9.61,30.03-11.09,4.63-.72,14.7-6.11,16.01,1.3-.41,3.2-3.55,5.44-4.63,8.48-6.29,13.2-.12,25.29,3.94,38.44,1.81,5.46,3.55,10.67,4.64,16.27.63,2.25.82,4.95,2.38,6.53.95.77,2.92.76,3.77,1.96,1.47,1.96-.92,3.65-1.29,5.51-.46,2.48,1.1,5.27,2.15,7.56.49,1.1.81,2.42,1.79,3.19,1.2.97,3.84.92,4.57,2.51.27.95-.66,1.61-1.17,2.3-2.31,1.98.79,11.46,3.08,13.77,1.25,1.1,5.56,1.39,4.13,3.89-2.31,2.37-2.29,5.06-.93,8.07.96,2.1,1.25,5.05,3.3,6.31,1.7.8,5.89,1.08,4.46,3.89-.76,1.29-2.17,2.32-2.19,3.94.03,3.06,1.67,7.71,3.74,10.25,1.3,1.17,4.12.93,4.91,2.71.45,1.8-1.82,3.09-2.17,4.76-.46,3.08,1.46,9.02,3.94,11.18,1.29.78,3.99.79,4.74,2.52.37,2.42-2.36,4.46-2.21,6.96.32,2.67,1.36,6.55,3.08,8.38,1.12.92,2.68,1.05,3.89,1.82,5.34,4.62-7.76,5.3,5.52,19.45,1.55,1.87.7,4.17.2,6.24-.47,2.98.13,6.68.63,9.69.22,4.94,3.16,20.91.29,22.64l-.04.02Z"/></g></svg>